{"title":"The Nameless (Los sin nombre) 1999 DVDRip [dubbed] Xvid LKRG","uid":6465423,"size":932338097,"categoryP":"video","categoryS":"movies","magnet":"?xt=urn:btih:b63d1477710288035f7ba001d9ab56a22c3a93c4&amp;dn=The+Nameless+%28Los+sin+nombre%29+1999+DVDRip+%5Bdubbed%5D+Xvid+LKRG&amp;tr=udp%3A%2F%2Ftracker.openbittorrent.com%3A80&amp;tr=udp%3A%2F%2Fopen.demonii.com%3A1337&amp;tr=udp%3A%2F%2Ftracker.coppersurfer.tk%3A6969&amp;tr=udp%3A%2F%2Fexodus.desync.com%3A6969","seeders":2,"leechers":0,"uploader":".BONE.","files":2,"time":1307950281,"description":"\nThe mutilated body of a six year old girl is found in a water hole. The girl is identified as\nthe missing daughter of Claudia. However, only two peices of evidence could be used to identify\nher; a bracelet with her name on it near the crime scene, and the fact that her right leg was\nthree inches longer than her left...\n &lt;a href=&quot;\nhttp://www.imdb.com/title/tt0222368/&quot; rel=&quot;nofollow&quot; target=&quot;_NEW&quot;&gt;\nhttp://www.imdb.com/title/tt0222368/&lt;/a&gt;\n\n\nEncoded By .......: BigPerm1828\nRuntime ..........: 1h 39mn\nFile Size ........: 889 MB\nResolution .......: 704x396\nIMDb URL .........: http://www.imdb.com/title/tt0222368/\nLanguage .........: English\nVideo\nID : 0\nFormat : MPEG-4 Visual\nFormat profile : Advanced Simple@L5\nFormat settings, BVOP : Yes\nFormat settings, QPel : No\nFormat settings, GMC : No warppoints\nFormat settings, Matrix : Default (H.263)\nCodec ID : XVID\nCodec ID/Hint : XviD\nDuration : 1h 39mn\nBit rate : 794 Kbps\nWidth : 704 pixels\nHeight : 396 pixels\nDisplay aspect ratio : 16:9\nFrame rate : 23.976 fps\nColor space : YUV\nChroma subsampling : 4:2:0\nBit depth : 8 bits\nScan type : Progressive\nCompression mode : Lossy\nBits/(Pixel*Frame) : 0.119\nStream size : 566 MiB (64%)\nWriting library : XviD 1.2.1 (UTC 2008-12-04)\nAudio\nID : 1\nFormat : AC-3\nFormat/Info : Audio Coding 3\nMode extension : CM (complete main)\nCodec ID : 2000\nDuration : 1h 39mn\nBit rate mode : Constant\nBit rate : 448 Kbps\nChannel(s) : 6 channels\nChannel positions : Front: L C R, Side: L R, LFE\nSampling rate : 48.0 KHz\nBit depth : 16 bits\nCompression mode : Lossy\nVideo delay : 42ms\nStream size : 319 MiB (36%)\nAlignment : Split accross interleaves\nInterleave, duration : 500 ms (11.99 video frames)\nInterleave, preload duration : 500 ms\n &lt;a href=&quot;\nhttp://leetleech.org/images/17716066002161225537.png&quot; rel=&quot;nofollow&quot; target=&quot;_NEW&quot;&gt;\nhttp://leetleech.org/images/17716066002161225537.png&lt;/a&gt;\n &lt;a href=&quot;\nhttp://leetleech.org/images/04342074120165646909.png&quot; rel=&quot;nofollow&quot; target=&quot;_NEW&quot;&gt;\nhttp://leetleech.org/images/04342074120165646909.png&lt;/a&gt;\n &lt;a href=&quot;\nhttp://leetleech.org/images/43216978363090415601.png&quot; rel=&quot;nofollow&quot; target=&quot;_NEW&quot;&gt;\nhttp://leetleech.org/images/43216978363090415601.png&lt;/a&gt;\n &lt;a href=&quot;\nhttp://leetleech.org/images/09838058816801169526.png&quot; rel=&quot;nofollow&quot; target=&quot;_NEW&quot;&gt;\nhttp://leetleech.org/images/09838058816801169526.png&lt;/a&gt;\n &lt;a href=&quot;\nhttp://leetleech.org/images/74932630488799182104.png&quot; rel=&quot;nofollow&quot; target=&quot;_NEW&quot;&gt;\nhttp://leetleech.org/images/74932630488799182104.png&lt;/a&gt;","torrent":{"xt":"urn:btih:b63d1477710288035f7ba001d9ab56a22c3a93c4","amp;dn":"The+Nameless+%28Los+sin+nombre%29+1999+DVDRip+%5Bdubbed%5D+Xvid+LKRG","amp;tr":["udp%3A%2F%2Ftracker.openbittorrent.com%3A80","udp%3A%2F%2Fopen.demonii.com%3A1337","udp%3A%2F%2Ftracker.coppersurfer.tk%3A6969","udp%3A%2F%2Fexodus.desync.com%3A6969"],"infoHash":"b63d1477710288035f7ba001d9ab56a22c3a93c4","infoHashBuffer":{"type":"Buffer","data":[182,61,20,119,113,2,136,3,95,123,160,1,217,171,86,162,44,58,147,196]},"announce":[],"urlList":[]}}